<svg width="802" height="276" viewBox="0 0 802 276" fill="none" xmlns="http://www.w3.org/2000/svg">
<path d="M553 138L563 128L573 138L563 148L553 138Z" fill="#201D1D"/>
<path d="M553 138L563 128L573 138L563 148L553 138ZM553 138H524.5" stroke="#B9A26D"/>
<path d="M802 104H601L568.5 133" stroke="#B9A26D"/>
<path d="M801.5 173H600.5L568.5 143" stroke="#B9A26D"/>
<path d="M232 240L242 230L252 240L242 250L232 240Z" fill="#201D1D"/>
<path d="M252 240L242 250L232 240L242 230L252 240ZM252 240L283 138.5" stroke="#B9A26D"/>
<path d="M3 206H204L236.5 235" stroke="#B9A26D"/>
<path d="M3.5 275H204.5L236.5 245" stroke="#B9A26D"/>
<path d="M229 35L239 25L249 35L239 45L229 35Z" fill="#201D1D"/>
<path d="M249 35L239 45L229 35L239 25L249 35ZM249 35L283 138" stroke="#B9A26D"/>
<path d="M0 1H201L233.5 30" stroke="#B9A26D"/>
<path d="M0.5 70H201.5L233.5 40" stroke="#B9A26D"/>
</svg>
