<svg width="250" height="102" viewBox="0 0 250 102" fill="none" xmlns="http://www.w3.org/2000/svg">
<path d="M70 13.9204L73.1481 11L76.2963 13.9204L73.1481 16.8407L70 13.9204Z" fill="#201D1D"/>
<path d="M76.2963 13.9204L73.1481 16.8407L70 13.9204L73.1481 11L76.2963 13.9204ZM76.2963 13.9204L89.5 52" stroke="#B9A26D"/>
<path d="M70 88.9204L73.1481 86L76.2963 88.9204L73.1481 91.8407L70 88.9204Z" fill="#201D1D"/>
<path d="M76.2963 88.9204L73.1481 91.8407L70 88.9204L73.1481 86L76.2963 88.9204ZM76.2963 88.9204L89.5 52.5" stroke="#B9A26D"/>
<path d="M179.5 52.2204L176.352 49.3L173.204 52.2204L176.352 55.1408L179.5 52.2204Z" fill="#201D1D"/>
<path d="M173.204 52.2204L176.352 55.1408L179.5 52.2204L176.352 49.3L173.204 52.2204ZM173.204 52.2204H165.725" stroke="#B9A26D"/>
<path d="M0 1H61.9786L71.5 12" stroke="#B9A26D"/>
<path d="M0 76H61.9786L71.5 87" stroke="#B9A26D"/>
<path d="M249.5 38.5H187.521L178 50.5" stroke="#B9A26D"/>
<path d="M0 26H62.1116L71.5 15.5" stroke="#B9A26D"/>
<path d="M0 101H62.1116L71.5 90.5" stroke="#B9A26D"/>
<path d="M249.5 64H187.388L178 53.5" stroke="#B9A26D"/>
</svg>
