<svg width="250" height="428" viewBox="0 0 250 428" fill="none" xmlns="http://www.w3.org/2000/svg">
<path d="M44.9773 254.801L49.1634 250.5L53.3495 254.801L49.1634 259L44.9773 254.801Z" fill="#201D1D"/>
<path d="M53.3495 254.801L49.1634 259L44.9773 254.801L49.1634 250.5L53.3495 254.801ZM53.3495 254.801L73 333" stroke="#B9A26D"/>
<path d="M0 242H40.4077L47 252.534M0 266H40.4077L47 257.458" stroke="#B9A26D"/>
<path d="M44.9773 335.215L49.1634 331L53.3495 335.215L49.1634 339.5L44.9773 335.215Z" fill="#201D1D"/>
<path d="M53.3495 335.215L49.1634 339.5L44.9773 335.215L49.1634 331L53.3495 335.215ZM53.3495 335.215H77.4197" stroke="#B9A26D"/>
<path d="M70.8152 335.215L75.0013 331L79.1874 335.215L75.0013 339L70.8152 335.215Z" fill="#201D1D"/>
<path d="M70.8152 335.215L75.0013 331L79.1874 335.215M70.8152 335.215L75.0013 339L79.1874 335.215M70.8152 335.215H66.2104M79.1874 335.215L90 215" stroke="#B9A26D"/>
<path d="M0 322H40.4077L47 333.061M0 347H40.4077L47 337.678" stroke="#B9A26D"/>
<path d="M44.9773 415.628L49 411.5L53.3495 415.628L49 419.5L44.9773 415.628Z" fill="#201D1D"/>
<path d="M53.3495 415.628L49 419.5L44.9773 415.628L49 411.5L53.3495 415.628ZM53.3495 415.628L73 337.5" stroke="#B9A26D"/>
<path d="M0 403H40.4077L47 413.704M0 427H40.4077L47 418.136" stroke="#B9A26D"/>
<path d="M44.9773 13.8007L49.1634 9.49997L53.3495 13.8007L49.1634 18L44.9773 13.8007Z" fill="#201D1D"/>
<path d="M53.3495 13.8007L49.1634 18L44.9773 13.8007L49.1634 9.49997L53.3495 13.8007ZM53.3495 13.8007L73 92" stroke="#B9A26D"/>
<path d="M0 0.999969H40.4077L47 11.5339M0 25H40.4077L47 16.4584" stroke="#B9A26D"/>
<path d="M44.9773 94.2146L49.1634 90L53.3495 94.2146L49.1634 98.5L44.9773 94.2146Z" fill="#201D1D"/>
<path d="M53.3495 94.2146L49.1634 98.5L44.9773 94.2146L49.1634 90L53.3495 94.2146ZM53.3495 94.2146H77.4197" stroke="#B9A26D"/>
<path d="M70.8152 94.2146L75.0013 90L79.1874 94.2146L75.0013 98L70.8152 94.2146Z" fill="#201D1D"/>
<path d="M70.8152 94.2146L75.0013 90L79.1874 94.2146M70.8152 94.2146L75.0013 98L79.1874 94.2146M70.8152 94.2146H66.2104M79.1874 94.2146L90 215" stroke="#B9A26D"/>
<path d="M0 81H40.4077L47 92.0613M0 106H40.4077L47 96.6781" stroke="#B9A26D"/>
<path d="M44.9773 174.628L49 170.5L53.3495 174.628L49 178.5L44.9773 174.628Z" fill="#201D1D"/>
<path d="M53.3495 174.628L49 178.5L44.9773 174.628L49 170.5L53.3495 174.628ZM53.3495 174.628L73 96.5" stroke="#B9A26D"/>
<path d="M0 162H40.4077L47 172.704M0 186H40.4077L47 177.136" stroke="#B9A26D"/>
<path d="M203.023 134.559L198.837 130.34L194.65 134.559L198.837 138.679L203.023 134.559Z" fill="#201D1D"/>
<path d="M194.65 134.559L198.837 138.679L203.023 134.559L198.837 130.34L194.65 134.559ZM194.65 134.559L170 213" stroke="#B9A26D"/>
<path d="M248 122H207.592L201 132.335M248 145.547H207.592L201 137.167" stroke="#B9A26D"/>
<path d="M204.442 215.135L200.256 211L196.07 215.135L200.256 219.34L204.442 215.135Z" fill="#201D1D"/>
<path d="M196.07 215.135L200.256 219.34L204.442 215.135L200.256 211L196.07 215.135ZM196.07 215.135H172" stroke="#B9A26D"/>
<path d="M172.395 215.135L168.209 211L164.023 215.135L168.209 218.849L172.395 215.135Z" fill="#201D1D"/>
<path d="M164.023 215.135L168.209 218.849L172.395 215.135L168.209 211L164.023 215.135ZM164.023 215.135H159.71" stroke="#B9A26D"/>
<path d="M249.42 202H209.012L202.42 212.853M249.42 226.528H209.012L202.42 217.382" stroke="#B9A26D"/>
<path d="M203.023 292.352L199 288.302L194.65 292.352L199 296.151L203.023 292.352Z" fill="#201D1D"/>
<path d="M194.65 292.352L199 296.151L203.023 292.352L199 288.302L194.65 292.352ZM194.65 292.352L170 217" stroke="#B9A26D"/>
<path d="M248 279.962H207.592L201 290.464M248 303.509H207.592L201 294.812" stroke="#B9A26D"/>
</svg>
