<svg width="544" height="531" viewBox="0 0 544 531" fill="none" xmlns="http://www.w3.org/2000/svg">
<path d="M469.5 170L459.5 160L449.5 170L459.5 180L469.5 170Z" fill="#201D1D"/>
<path d="M449.5 170L459.5 180L469.5 170L459.5 160L449.5 170ZM449.5 170L376.5 263.5" stroke="#B9A26D"/>
<path d="M543.5 154H475.581L464.5 165M543.5 184H475.581L464.5 175" stroke="#B9A26D"/>
<path d="M469.5 269L459.5 259L449.5 269L459.5 279L469.5 269Z" fill="#201D1D"/>
<path d="M449.5 269L459.5 279L469.5 269L459.5 259L449.5 269ZM449.5 269H392" stroke="#B9A26D"/>
<path d="M381.5 269L371.5 259L361.5 269L371.5 279L381.5 269Z" fill="#201D1D"/>
<path d="M381.5 269L371.5 259L361.5 269M381.5 269L371.5 279L361.5 269M381.5 269H392.5M361.5 269H349.5" stroke="#B9A26D"/>
<path d="M543.5 253H475.581L464.5 264M543.5 283H475.581L464.5 274" stroke="#B9A26D"/>
<path d="M469.5 365L459.5 355L449.5 365L459.5 375L469.5 365Z" fill="#201D1D"/>
<path d="M449.5 365L459.5 375L469.5 365L459.5 355L449.5 365ZM449.5 365L376.5 274.5" stroke="#B9A26D"/>
<path d="M543.5 349H475.581L464.5 360M543.5 379H475.581L464.5 370" stroke="#B9A26D"/>
<path d="M74 17L84 7L94 17L84 27L74 17Z" fill="#201D1D"/>
<path d="M94 17L84 27L74 17L84 7L94 17ZM94 17L167 110.5" stroke="#B9A26D"/>
<path d="M0 1H67.9193L79 12M0 31H67.9193L79 22" stroke="#B9A26D"/>
<path d="M74 116L84 106L94 116L84 126L74 116Z" fill="#201D1D"/>
<path d="M94 116L84 126L74 116L84 106L94 116ZM94 116H151.5" stroke="#B9A26D"/>
<path d="M162 116L172 106L182 116L172 126L162 116Z" fill="#201D1D"/>
<path d="M162 116L172 106L182 116M162 116L172 126L182 116M162 116H151M182 116L195 269" stroke="#B9A26D"/>
<path d="M0 100H67.9193L79 111M0 130H67.9193L79 121" stroke="#B9A26D"/>
<path d="M74 216L84 206L94 216L84 226L74 216Z" fill="#201D1D"/>
<path d="M94 216L84 226L74 216L84 206L94 216ZM94 216L167 121.5" stroke="#B9A26D"/>
<path d="M0 200H67.9193L79 211M0 230H67.9193L79 221" stroke="#B9A26D"/>
<path d="M75 318L85 308L95 318L85 328L75 318Z" fill="#201D1D"/>
<path d="M95 318L85 328L75 318L85 308L95 318ZM95 318L168 411.5" stroke="#B9A26D"/>
<path d="M1 302H68.9193L80 313M1 332H68.9193L80 323" stroke="#B9A26D"/>
<path d="M75 417L85 407L95 417L85 427L75 417Z" fill="#201D1D"/>
<path d="M95 417L85 427L75 417L85 407L95 417ZM95 417H152.5" stroke="#B9A26D"/>
<path d="M163 417L173 407L183 417L173 427L163 417Z" fill="#201D1D"/>
<path d="M163 417L173 407L183 417M163 417L173 427L183 417M163 417H152M183 417L195 269" stroke="#B9A26D"/>
<path d="M1 401H68.9193L80 412M1 431H68.9193L80 422" stroke="#B9A26D"/>
<path d="M75 516L85 506L95 516L85 526L75 516Z" fill="#201D1D"/>
<path d="M95 516L85 526L75 516L85 506L95 516ZM95 516L168 422.5" stroke="#B9A26D"/>
<path d="M1 500H68.9193L80 511M1 530H68.9193L80 521" stroke="#B9A26D"/>
</svg>
