<svg width="502" height="173" viewBox="0 0 502 173" fill="none" xmlns="http://www.w3.org/2000/svg">
<path d="M347.041 86.5L353.021 80L359 86.5L353.021 93L347.041 86.5Z" fill="#201D1D"/>
<path d="M347.041 86.5L353.021 80L359 86.5L353.021 93L347.041 86.5ZM347.041 86.5H330" stroke="#B9A26D"/>
<path d="M502 65H377.182L357 84" stroke="#B9A26D"/>
<path d="M502 109H376.914L357 89" stroke="#B9A26D"/>
<path d="M145.838 150.399L152.097 144.139L158.356 150.399L152.097 156.658L145.838 150.399Z" fill="#201D1D"/>
<path d="M158.356 150.399L152.097 156.658L145.838 150.399L152.097 144.139L158.356 150.399ZM158.356 150.399L177.759 86.8688" stroke="#B9A26D"/>
<path d="M2.50504 129.118H128.313L148.655 147.269" stroke="#B9A26D"/>
<path d="M2.81797 172.305H128.626L148.655 153.528" stroke="#B9A26D"/>
<path d="M143.96 22.0872L150.219 15.8281L156.478 22.0872L150.219 28.3463L143.96 22.0872Z" fill="#201D1D"/>
<path d="M156.478 22.0872L150.219 28.3463L143.96 22.0872L150.219 15.8281L156.478 22.0872ZM156.478 22.0872L177.759 86.5558" stroke="#B9A26D"/>
<path d="M0.627111 0.806396H126.435L146.777 18.9578" stroke="#B9A26D"/>
<path d="M0.940037 43.9942H126.748L146.777 25.2169" stroke="#B9A26D"/>
</svg>
