<svg width="984" height="532" viewBox="0 0 984 532" fill="none" xmlns="http://www.w3.org/2000/svg">
<path d="M74 17L84 7L94 17L84 27L74 17Z" fill="#201D1D"/>
<path d="M94 17L84 27L74 17L84 7L94 17ZM94 17L194.5 85" stroke="#B9A26D"/>
<path d="M0 1H67.9193L79 12M0 31H67.9193L79 22" stroke="#B9A26D"/>
<path d="M910 165L900 155L890 165L900 175L910 165Z" fill="#201D1D"/>
<path d="M890 165L900 175L910 165L900 155L890 165ZM890 165L789.5 234" stroke="#B9A26D"/>
<path d="M984 149H916.081L905 160M984 179H916.081L905 170" stroke="#B9A26D"/>
<path d="M910 264L900 254L890 264L900 274L910 264Z" fill="#201D1D"/>
<path d="M890 264L900 274L910 264L900 254L890 264ZM890 264H789.5" stroke="#B9A26D"/>
<path d="M984 248H916.081L905 259M984 278H916.081L905 269" stroke="#B9A26D"/>
<path d="M910 360L900 350L890 360L900 370L910 360Z" fill="#201D1D"/>
<path d="M890 360L900 370L910 360L900 350L890 360ZM890 360L789.5 294.5" stroke="#B9A26D"/>
<path d="M984 344H916.081L905 355M984 374H916.081L905 365" stroke="#B9A26D"/>
<path d="M658 265L648 255L638 265L648 275L658 265Z" fill="#201D1D"/>
<path d="M638 265L648 275L658 265L648 255L638 265ZM638 265H547.5" stroke="#B9A26D"/>
<path d="M732 249H664.081L653 260M732 279H664.081L653 270" stroke="#B9A26D"/>
<path d="M74 115L84 105L94 115L84 125L74 115Z" fill="#201D1D"/>
<path d="M94 115L84 125L74 115L84 105L94 115ZM94 115H194.5" stroke="#B9A26D"/>
<path d="M0 99H67.9193L79 110M0 129H67.9193L79 120" stroke="#B9A26D"/>
<path d="M326 117L336 107L346 117L336 127L326 117Z" fill="#201D1D"/>
<path d="M346 117L336 127L326 117L336 107L346 117ZM346 117L436.5 235" stroke="#B9A26D"/>
<path d="M252 101H319.919L331 112M252 131H319.919L331 122" stroke="#B9A26D"/>
<path d="M74 217L84 207L94 217L84 227L74 217Z" fill="#201D1D"/>
<path d="M94 217L84 227L74 217L84 207L94 217ZM94 217L194.5 145.5" stroke="#B9A26D"/>
<path d="M0 201H67.9193L79 212M0 231H67.9193L79 222" stroke="#B9A26D"/>
<path d="M74 317L84 307L94 317L84 327L74 317Z" fill="#201D1D"/>
<path d="M94 317L84 327L74 317L84 307L94 317ZM94 317L194.5 385" stroke="#B9A26D"/>
<path d="M0 301H67.9193L79 312M0 331H67.9193L79 322" stroke="#B9A26D"/>
<path d="M74 415L84 405L94 415L84 425L74 415Z" fill="#201D1D"/>
<path d="M94 415L84 425L74 415L84 405L94 415ZM94 415H194.5" stroke="#B9A26D"/>
<path d="M0 399H67.9193L79 410M0 429H67.9193L79 420" stroke="#B9A26D"/>
<path d="M326 417L336 407L346 417L336 427L326 417Z" fill="#201D1D"/>
<path d="M346 417L336 427L326 417L336 407L346 417ZM346 417L436.5 295.5" stroke="#B9A26D"/>
<path d="M252 401H319.919L331 412M252 431H319.919L331 422" stroke="#B9A26D"/>
<path d="M74 517L84 507L94 517L84 527L74 517Z" fill="#201D1D"/>
<path d="M94 517L84 527L74 517L84 507L94 517ZM94 517L194.5 445.5" stroke="#B9A26D"/>
<path d="M0 501H67.9193L79 512M0 531H67.9193L79 522" stroke="#B9A26D"/>
</svg>
