<svg width="169" height="41" viewBox="0 0 169 41" fill="none" xmlns="http://www.w3.org/2000/svg">
<path fill-rule="evenodd" clip-rule="evenodd" d="M9.3195 34H7.40697L0 21L7.40697 7H9.3195L1.91254 21L9.3195 34Z" fill="#645E5E" fill-opacity="0.46"/>
<path fill-rule="evenodd" clip-rule="evenodd" d="M130.949 34L10.8104 34L3.3864 21L10.8104 7L131.119 7L130.875 7.5L11.0294 7.5L3.9574 21L11.0294 33.5L130.692 33.5L130.949 34Z" fill="#171311" fill-opacity="0.51"/>
<path d="M13.208 33.5L130.692 33.5L124.285 21L130.875 7.5L13.1649 7.5L6.23656 21L13.208 33.5Z" fill="#080807" fill-opacity="0.7"/>
<path fill-rule="evenodd" clip-rule="evenodd" d="M131.717 35.5C85.6451 35.5 59.8018 35.5 13.7294 35.5L5.71803 21L13.7294 5.5L131.852 5.5L131.608 6L14.0793 6L6.23656 21L14.0793 35L131.461 35L131.717 35.5Z" fill="#171311" fill-opacity="0.51"/>
<path d="M6.23656 21L11.9008 31.2052V27.5L8.24547 21L11.9008 13.5V9.57359L6.23656 21Z" fill="#645E5E" fill-opacity="0.46"/>
<path fill-rule="evenodd" clip-rule="evenodd" d="M125.618 21L135.194 40L156.33 40L167.24 21L156.988 1L135.194 1L125.618 21ZM134.537 0L124.285 21L134.537 41L156.988 41L169 21L158.438 0L134.537 0Z" fill="#171311" fill-opacity="0.51"/>
<path d="M135.194 40L125.618 21L135.194 1L156.988 1L167.24 21L156.33 40L135.194 40Z" fill="#171311" fill-opacity="0.9"/>
</svg>
