<svg width="112" height="30" viewBox="0 0 112 30" fill="none" xmlns="http://www.w3.org/2000/svg">
<path fill-rule="evenodd" clip-rule="evenodd" d="M6.17624 24.878H4.90876L0 15.3659L4.90876 5.12195H6.17624L1.26748 15.3659L6.17624 24.878Z" fill="#645E5E" fill-opacity="0.46"/>
<path fill-rule="evenodd" clip-rule="evenodd" d="M86.7825 24.878L7.16431 24.878L2.24424 15.3659L7.16431 5.12195L86.8957 5.12195L86.734 5.48781L7.30942 5.48781L2.62265 15.3659L7.30942 24.5122L86.6127 24.5122L86.7825 24.878Z" fill="#171311" fill-opacity="0.51"/>
<path d="M8.75326 24.5122L86.6127 24.5122L82.3664 15.3659L86.734 5.48781L8.72465 5.48781L4.1331 15.3659L8.75326 24.5122Z" fill="#080807" fill-opacity="0.7"/>
<path fill-rule="evenodd" clip-rule="evenodd" d="M87.2921 25.9756C56.7589 25.9756 39.632 25.9756 9.09881 25.9756L3.78946 15.3659L9.09881 4.02439L87.381 4.02439L87.2193 4.39024L9.33065 4.39024L4.1331 15.3659L9.33065 25.6098L87.1222 25.6098L87.2921 25.9756Z" fill="#171311" fill-opacity="0.51"/>
<path d="M4.1331 15.3659L7.88691 22.8331V20.122L5.46445 15.3659L7.88691 9.87805V7.00506L4.1331 15.3659Z" fill="#645E5E" fill-opacity="0.46"/>
<path fill-rule="evenodd" clip-rule="evenodd" d="M83.2497 15.3659L89.5963 29.2683L103.603 29.2683L110.833 15.3658L104.039 0.731712L89.5963 0.731712L83.2497 15.3659ZM89.1604 0L82.3664 15.3659L89.1604 30L104.039 30L112 15.3658L105 0L89.1604 0Z" fill="#171311" fill-opacity="0.51"/>
<path d="M89.5963 29.2683L83.2497 15.3659L89.5963 0.731712L104.039 0.731712L110.833 15.3658L103.603 29.2683L89.5963 29.2683Z" fill="#171311" fill-opacity="0.9"/>
</svg>
