<svg width="169" height="41" viewBox="0 0 169 41" fill="none" xmlns="http://www.w3.org/2000/svg">
<path fill-rule="evenodd" clip-rule="evenodd" d="M159.68 7H161.593L169 20L161.593 34H159.68L167.087 20L159.68 7Z" fill="#645E5E" fill-opacity="0.46"/>
<path fill-rule="evenodd" clip-rule="evenodd" d="M38.0514 7H158.19L165.614 20L158.19 34H37.8805L38.1246 33.5H157.971L165.043 20L157.971 7.5H38.3077L38.0514 7Z" fill="#171311" fill-opacity="0.51"/>
<path d="M155.792 7.5H38.3077L44.715 20L38.1246 33.5H155.835L162.763 20L155.792 7.5Z" fill="#080807" fill-opacity="0.7"/>
<path fill-rule="evenodd" clip-rule="evenodd" d="M37.2825 5.5C83.3549 5.5 109.198 5.5 155.271 5.5L163.282 20L155.271 35.5H37.1483L37.3923 35H154.921L162.763 20L154.921 6H37.5388L37.2825 5.5Z" fill="#171311" fill-opacity="0.51"/>
<path d="M162.763 20L157.099 9.79477V13.5L160.755 20L157.099 27.5V31.4264L162.763 20Z" fill="#645E5E" fill-opacity="0.46"/>
<path fill-rule="evenodd" clip-rule="evenodd" d="M43.3822 20L33.8056 0.999999L12.6698 1L1.76042 20L12.0121 40H33.8056L43.3822 20ZM34.4633 41L44.715 20L34.4633 0L12.0121 1.0285e-06L0 20L10.5625 41H34.4633Z" fill="#171311" fill-opacity="0.51"/>
<path d="M33.8056 0.999999L43.3822 20L33.8056 40H12.0121L1.76042 20L12.6698 1L33.8056 0.999999Z" fill="#171311" fill-opacity="0.9"/>
</svg>
