<svg width="112" height="30" viewBox="0 0 112 30" fill="none" xmlns="http://www.w3.org/2000/svg">
<path fill-rule="evenodd" clip-rule="evenodd" d="M105.824 5.12195H107.091L112 14.6341L107.091 24.878H105.824L110.733 14.6341L105.824 5.12195Z" fill="#645E5E" fill-opacity="0.46"/>
<path fill-rule="evenodd" clip-rule="evenodd" d="M25.2175 5.12195H104.836L109.756 14.6341L104.836 24.878H25.1043L25.266 24.5122H104.691L109.377 14.6341L104.691 5.4878H25.3873L25.2175 5.12195Z" fill="#171311" fill-opacity="0.51"/>
<path d="M103.247 5.4878H25.3873L29.6336 14.6341L25.266 24.5122H103.275L107.867 14.6341L103.247 5.4878Z" fill="#080807" fill-opacity="0.7"/>
<path fill-rule="evenodd" clip-rule="evenodd" d="M24.7079 4.02439C55.2411 4.02439 72.368 4.02439 102.901 4.02439L108.211 14.6341L102.901 25.9756H24.619L24.7807 25.6098H102.669L107.867 14.6341L102.669 4.39024H24.8778L24.7079 4.02439Z" fill="#171311" fill-opacity="0.51"/>
<path d="M107.867 14.6341L104.113 7.1669V9.87805L106.536 14.6341L104.113 20.122V22.9949L107.867 14.6341Z" fill="#645E5E" fill-opacity="0.46"/>
<path fill-rule="evenodd" clip-rule="evenodd" d="M28.7503 14.6341L22.4037 0.731707L8.39653 0.731707L1.16667 14.6342L7.9607 29.2683H22.4037L28.7503 14.6341ZM22.8396 30L29.6336 14.6341L22.8396 0L7.9607 7.52563e-07L0 14.6342L7 30H22.8396Z" fill="#171311" fill-opacity="0.51"/>
<path d="M22.4037 0.731707L28.7503 14.6341L22.4037 29.2683H7.9607L1.16667 14.6342L8.39653 0.731707L22.4037 0.731707Z" fill="#171311" fill-opacity="0.9"/>
</svg>
